<?xml version="1.0" encoding="UTF-8"?>
<svg version="1.1" viewBox="0 0 130 108" xmlns="http://www.w3.org/2000/svg">
<title>Slice 1</title>
<g fill="none" fill-rule="evenodd">
<path d="m8.9009 46.58c34.889-15.193 58.116-25.289 69.779-30.187 33.195-13.894 40.173-16.293 44.658-16.393 0.99684 0 3.1899 0.19991 4.6852 1.3994 1.1962 0.99956 1.4953 2.299 1.6946 3.2985 0.19937 0.99956 0.39874 3.0986 0.19937 4.6979-1.7943 18.992-9.5697 65.071-13.557 86.262-1.6946 8.996-4.9842 11.995-8.1741 12.295-6.9779 0.59974-12.261-4.598-18.94-8.996-10.567-6.897-16.448-11.195-26.715-17.992-11.862-7.7966-4.1867-12.095 2.5918-19.092 1.7943-1.7992 32.397-29.787 32.995-32.286 0.099684-0.29987 0.099684-1.4993-0.5981-2.0991-0.69779-0.59974-1.6946-0.39982-2.4921-0.19991-1.0965 0.19991-17.843 11.395-50.44 33.485-4.7848 3.2985-9.0713 4.8978-12.959 4.7979-4.2864-0.099956-12.461-2.3989-18.641-4.3981-7.4763-2.3989-13.457-3.6984-12.959-7.8965 0.29905-2.199 3.2896-4.3981 8.8719-6.6971z" fill="#fff"/>
</g>
</svg>
