
<svg width="717px" height="197px" viewBox="0 0 717 197" version="1.1" xmlns="http://www.w3.org/2000/svg" xmlns:xlink="http://www.w3.org/1999/xlink">
    <g id="Page-1" stroke="none" stroke-width="1" fill="none" fill-rule="evenodd">
        <g id="Artboard" transform="translate(-913.000000, -217.000000)" fill="#FFFFFF" fill-rule="nonzero">
            <g id="Header-Texts" transform="translate(665.500000, 217.475382)">
                <g id="Hackintosh-Universe" transform="translate(248.035293, 0.000000)">
                    <polygon id="Path" points="42.6790122 45.5175214 42.6790122 75.5246179 58.1894371 75.5246179 58.1894371 3.04125978 42.6790122 3.04125978 42.6790122 33.0483563 15.5104249 33.0483563 15.5104249 3.04125978 1.13686838e-13 3.04125978 1.13686838e-13 75.5246179 15.5104249 75.5246179 15.5104249 45.5175214"></polygon>
                    <path d="M110.619336,3.04125978 L98.2515467,3.04125978 L71.9953372,75.5246179 L88.41814,75.5246179 L93.689657,61.3320722 L115.181226,61.3320722 L120.249992,75.5246179 L136.875546,75.5246179 L110.619336,3.04125978 Z M99.2652999,45.8216474 L104.435442,31.6291017 L109.504208,45.8216474 L99.2652999,45.8216474 Z" id="Shape"></path>
                    <path d="M200.963608,53.3234215 C196.908595,57.3784345 191.637078,59.6086917 185.858684,59.6086917 C174.200522,59.6086917 164.569866,49.9780357 164.569866,38.3198732 C164.569866,26.5603354 174.200522,16.9296794 185.858684,16.9296794 C191.535702,17.0310548 196.908595,19.0585613 200.963608,23.2149497 L206.640626,28.7905926 L217.893287,17.5379314 L212.216269,11.9622885 C205.322747,4.96739097 195.793466,1.01375326 185.858684,1.01375326 C165.380868,1.01375326 148.653939,17.740682 148.653939,38.3198732 C148.653939,58.7976891 165.380868,75.5246179 185.858684,75.5246179 C195.894841,75.6259932 205.221371,71.6723555 212.216269,64.5760827 L217.893287,58.8990644 L206.640626,47.6464032 L200.963608,53.3234215 Z" id="Path"></path>
                    <polygon id="Path" points="233.523943 3.04125978 233.523943 75.5246179 249.034368 75.5246179 249.034368 59.9128177 259.070525 48.9642825 277.62221 75.5246179 298.404152 75.5246179 270.627312 37.30612 296.27527 3.04125978 274.378199 3.04125978 249.034368 38.0157472 249.034368 3.04125978"></polygon>
                    <polygon id="Path" points="335.222251 3.04125978 319.711826 3.04125978 319.711826 75.5246179 335.222251 75.5246179"></polygon>
                    <polygon id="Path" points="399.310313 44.0982668 369.505967 3.04125978 356.6313 3.04125978 356.6313 75.5246179 372.141725 75.5246179 372.141725 33.1497316 402.959824 75.5246179 414.820737 75.5246179 414.820737 3.04125978 399.310313 3.04125978"></polygon>
                    <polygon id="Path" points="434.405031 3.04125978 434.405031 18.5516847 456.302102 18.5516847 456.302102 75.5246179 471.812526 75.5246179 471.812526 18.5516847 493.709597 18.5516847 493.709597 3.04125978"></polygon>
                    <path d="M546.443622,0 C525.560305,0 508.732001,17.0310548 508.732001,37.8129966 C508.732001,58.6963138 525.560305,75.5246179 546.443622,75.5246179 C567.225564,75.5246179 584.256619,58.6963138 584.256619,37.8129966 C584.256619,17.0310548 567.225564,0 546.443622,0 Z M546.443622,59.405941 C534.582709,59.405941 524.850678,49.6739097 524.850678,37.8129966 C524.850678,25.8507081 534.582709,16.1186768 546.443622,16.1186768 C558.405911,16.1186768 568.137942,25.8507081 568.137942,37.8129966 C568.137942,49.6739097 558.405911,59.405941 546.443622,59.405941 Z M537.015717,37.8129966 C537.015717,43.0845135 541.374856,47.4436526 546.646373,47.4436526 C551.91789,47.4436526 556.277029,43.0845135 556.277029,37.8129966 C556.277029,32.5414796 551.91789,28.1823406 546.646373,28.1823406 C541.374856,28.1823406 537.015717,32.5414796 537.015717,37.8129966 Z" id="Shape"></path>
                    <path d="M621.277469,30.7167238 L619.858214,30.6153485 C617.830707,30.6153485 615.904576,29.8043458 614.485322,28.3850913 C613.066067,26.9658367 612.35644,25.0397055 612.35644,23.2149497 C612.55919,19.3626873 616.107327,16.3214275 620.365091,16.4228028 C623.102224,16.5241781 625.433857,17.8420574 626.751736,20.0723145 L641.045657,12.8746664 C637.092019,5.77839358 629.286119,1.41925456 620.973343,1.11512859 C607.389049,0.709627282 596.440514,10.3402833 596.035012,22.708073 C595.629511,34.9744875 605.969794,45.416146 619.148587,45.9230227 L620.669217,46.024398 C622.696723,46.024398 624.622854,46.8354006 626.042109,48.2546552 C627.461363,49.7752851 628.170991,51.6000409 628.170991,53.4247968 C627.96824,57.2770592 624.521479,60.4196943 620.16234,60.2169436 C617.425206,60.1155683 615.093574,58.7976891 613.775694,56.5674319 L609.923432,49.7752851 L595.528136,57.1756839 L599.481773,63.7650801 C603.435411,70.8613529 611.241311,75.2204919 619.655463,75.5246179 C619.858214,75.5246179 620.16234,75.5246179 620.466466,75.5246179 C633.543883,75.5246179 644.086917,65.9953372 644.492418,53.9316734 C644.999295,41.5638837 634.456261,31.1222251 621.277469,30.7167238 Z" id="Path"></path>
                    <polygon id="Path" points="700.571829 45.5175214 700.571829 75.5246179 716.082254 75.5246179 716.082254 3.04125978 700.571829 3.04125978 700.571829 33.0483563 673.403242 33.0483563 673.403242 3.04125978 657.892817 3.04125978 657.892817 75.5246179 673.403242 75.5246179 673.403242 45.5175214"></polygon>
                    <path d="M134.493226,167.429899 C134.493226,174.931673 128.410706,181.014193 120.908932,181.014193 C113.407158,181.014193 107.324638,174.931673 107.324638,167.429899 L107.324638,124.04126 L91.8142135,124.04126 L91.8142135,167.429899 C91.8142135,183.447201 104.891631,196.524618 120.908932,196.524618 C137.027609,196.524618 150.003651,183.447201 150.003651,167.429899 L150.003651,124.04126 L134.493226,124.04126 L134.493226,167.429899 Z" id="Path"></path>
                    <polygon id="Path" points="208.110568 165.098267 178.306222 124.04126 165.431556 124.04126 165.431556 196.524618 180.941981 196.524618 180.941981 154.149732 211.76008 196.524618 223.620993 196.524618 223.620993 124.04126 208.110568 124.04126"></polygon>
                    <polygon id="Path" points="264.291355 124.04126 248.78093 124.04126 248.78093 196.524618 264.291355 196.524618"></polygon>
                    <polygon id="Path" points="320.472141 170.268408 303.846587 124.04126 287.119659 124.04126 314.288246 196.524618 326.757411 196.524618 353.824623 124.04126 337.19907 124.04126"></polygon>
                    <polygon id="Path" points="367.833274 196.524618 421.663572 196.524618 421.663572 181.014193 383.343699 181.014193 383.343699 168.038151 406.153147 168.038151 406.153147 152.527726 383.343699 152.527726 383.343699 139.551685 421.663572 139.551685 421.663572 124.04126 367.833274 124.04126"></polygon>
                    <path d="M440.031362,196.423243 L455.541787,196.423243 L455.541787,176.857805 L458.785797,176.857805 L470.849461,196.524618 L488.894269,196.524618 L475.107225,174.728923 C484.737881,170.775285 491.530027,161.34738 491.530027,150.297469 C491.530027,135.699422 479.669114,123.939884 465.172443,123.939884 L440.031362,123.939884 L440.031362,196.423243 Z M455.541787,139.450309 L465.172443,139.450309 C471.153587,139.450309 476.019603,144.316325 476.019603,150.297469 C476.019603,156.278613 471.153587,161.144629 465.172443,161.144629 L455.541787,161.144629 L455.541787,139.450309 Z" id="Shape"></path>
                    <path d="M532.301764,151.716724 L530.88251,151.615348 C528.855003,151.615348 526.928872,150.804346 525.509617,149.385091 C524.090363,147.965837 523.380736,146.039706 523.380736,144.21495 C523.583486,140.362687 527.131623,137.321427 531.389386,137.422803 C534.12652,137.524178 536.458153,138.842057 537.776032,141.072315 L552.069953,133.874666 C548.116315,126.778394 540.310415,122.419255 531.997638,122.115129 C518.413345,121.709627 507.464809,131.340283 507.059308,143.708073 C506.653807,155.974487 516.99409,166.416146 530.172882,166.923023 L531.693512,167.024398 C533.721019,167.024398 535.64715,167.835401 537.066405,169.254655 C538.485659,170.775285 539.195286,172.600041 539.195286,174.424797 C538.992536,178.277059 535.545775,181.419694 531.186636,181.216944 C528.449502,181.115568 526.117869,179.797689 524.79999,177.567432 L520.947728,170.775285 L506.552431,178.175684 L510.506069,184.76508 C514.459707,191.861353 522.265607,196.220492 530.679759,196.524618 C530.88251,196.524618 531.186636,196.524618 531.490762,196.524618 C544.568179,196.524618 555.111213,186.995337 555.516714,174.931673 C556.02359,162.563884 545.480557,152.122225 532.301764,151.716724 Z" id="Path"></path>
                    <polygon id="Path" points="568.917113 196.524618 622.747411 196.524618 622.747411 181.014193 584.427538 181.014193 584.427538 168.038151 607.236986 168.038151 607.236986 152.527726 584.427538 152.527726 584.427538 139.551685 622.747411 139.551685 622.747411 124.04126 568.917113 124.04126"></polygon>
                </g>
            </g>
        </g>
    </g>
</svg>
